<?xml version="1.0" encoding="UTF-8"?>
<svg id="Layer_1" xmlns="http://www.w3.org/2000/svg" version="1.1" viewBox="0 0 1080 1080">
  <!-- Generator: Adobe Illustrator 30.1.0, SVG Export Plug-In . SVG Version: 2.1.1 Build 136)  -->
  <defs>
    <style>
      .st0 {
        fill: #fff;
      }
    </style>
  </defs>
  <path class="st0" d="M718.11,594.27c-1.76-1.09-3.52-1.86-5.45-2.76-1.1,2.63-1.81,3.7-6.4,5.46-6.75-5.08-16.02-3.85-22.54,1.67-8.09,6.85-8.35,19.43-.73,26.68-2.3,1.52-4.03,3.38-4.69,5.94-.88,3.44.65,6.83,3.85,8.38,1.55.75,3.23,1.16,5.02,1.18l18.43.16c1.48.01,3.37.62,3.88,1.98.72,1.93-.65,3.51-1.39,5.14-.22.48.78.87,1.16,1.05.92.43,8.09-4.18,6.54-10.41-.79-3.19-5.11-3.59-8.46-3.63l-19.1-.23c-1.9-.02-4.83-.66-4.99-3.06-.12-1.81.81-3.84,2.21-4.63,8.2,4.68,20.82,3.59,26.43-4.91,4.47-6.78,3.76-15.62-1.41-21.85,3.91-.64,6.77-1.69,7.63-6.15ZM696.75,627.17c-3.42.11-6.56-1.58-8.29-4.83-5.17-9.67-1.4-24.99,7.63-25.05,2.87-.02,5.53,1.55,7.16,4.24,5.73,9.47,3.17,25.33-6.49,25.64Z"/>
  <path class="st0" d="M839.53,568.16c-3.91,2.98-8.77,3.92-13.68,3.08-8.31-1.43-13.92-8.25-13.79-16.68.08-4.92,1.45-9.65,5.12-13.08,5.77-5.39,14.49-6.5,21.62-2.62l.13-15.03,7.58.02v46.76c-2.15.07-3.99.12-5.89-.04l-1.1-2.4ZM838.82,565.02l-.1-22.91c-4.86-3.89-13.28-2.3-16.46,3.28-4.03,7.08-3.18,19.3,6.01,22,3.74,1.1,7.77.4,10.55-2.37Z"/>
  <path class="st0" d="M772.96,598.18c-2.59.69-4.83,1.53-6.64,3.41l-.05,27.14-7.44.06v-33.88c2.03-.06,3.83-.13,5.72.05l1.3,3.14c4.68-3.17,10.29-4.37,15.81-3.11,5.23,1.19,9.27,5.42,9.31,11.01l.15,22.74h-7.65s-.06-20.35-.06-20.35c0-2.35-.5-4.58-1.6-6.56-1.76-3.14-5.29-4.58-8.84-3.64Z"/>
  <path class="st0" d="M810.85,624.61c4.96,3.7,10.78,1.08,14.5-2.85.92.27,1.56.96,2.2,1.83-6.98,7.76-19.57,8.07-26.59-.05-5.19-6-5.56-15.07-1.07-21.56,5.95-8.6,19.49-10.37,26.77-3.18-.51.88-1.18,1.87-2,1.88-3.1-2.75-7.12-4.21-11.05-2.78-3.09,1.13-5.24,3.54-6.85,6.35-3.92,6.87-2.38,15.52,4.09,20.35Z"/>
  <path class="st0" d="M860.8,595.41l-11.74,26.98-11.75-27.06c-2.4-.1-4.56-.19-7.08.06l15.06,35.05c-.79,2.4-1.89,5.09-3.47,7.4-1.38,2.02-3.56,2.33-5.56,1.03-.85-.55-1.48-.93-2.41-1.53-.86,1.25-1.41,2.22-2.11,3.62,1.51,1.43,3.3,2.48,5.44,3.12.8.24,1.58.32,2.33.28v.02c7.35,0,10.5-7.78,10.5-7.78l17.32-40.95c-3.32-.7-6.52-.22-6.52-.22Z"/>
  <path class="st0" d="M913.78,537.15l-11.74,26.98-11.75-27.06c-2.4-.1-4.56-.19-7.08.06l15.06,35.05c-.79,2.4-1.89,5.09-3.47,7.4-1.38,2.02-3.56,2.33-5.56,1.03-.85-.55-1.48-.93-2.41-1.53-.86,1.25-1.41,2.22-2.11,3.62,1.51,1.43,3.3,2.48,5.44,3.12.8.24,1.58.32,2.33.28v.02c7.35,0,10.5-7.78,10.5-7.78l17.32-40.95c-3.32-.7-6.52-.22-6.52-.22Z"/>
  <path class="st0" d="M860.68,571.38c-5.5-.66-9.51-4.43-10.04-9.57-.53-5.24,2.54-10.12,7.79-11.46,4.6-1.18,11.19-1.31,13.83-3.4.31-2.35-1.4-4.07-3.77-4.96-5.26-1.98-10.01-.46-12.77,4.37-1.34-.61-2.34-1.26-3.18-1.91,4.1-7.11,12.98-8.71,20.38-6.51,5.37,1.59,7.15,6.7,7.14,11.91v20.68c-1.93.19-3.7.12-5.61.05-.56-.36-.88-1.31-1.04-1.62-3.81,2.38-8.23,2.98-12.74,2.43ZM862.35,568.27c3.55,1.21,7.58-.42,10.17-2.72v-14.39c-2.7,1.03-6.01,1.39-8.79,2.01-3.93.88-5.8,3.33-5.79,7.52,0,2.98,1.21,6.48,4.42,7.58Z"/>
  <path class="st0" d="M652.15,629.6c-5.5-.66-9.51-4.43-10.04-9.57-.53-5.24,2.54-10.12,7.79-11.46,4.6-1.18,11.19-1.31,13.83-3.4.31-2.35-1.4-4.07-3.77-4.96-5.26-1.98-10.01-.46-12.77,4.37-1.34-.61-2.34-1.26-3.18-1.91,4.1-7.11,12.98-8.71,20.38-6.51,5.37,1.59,7.15,6.7,7.14,11.91v20.68c-1.93.19-3.7.12-5.61.05-.56-.36-.88-1.31-1.04-1.62-3.81,2.38-8.23,2.98-12.74,2.43ZM653.81,626.49c3.55,1.21,7.58-.42,10.17-2.72v-14.39c-2.7,1.03-6.01,1.39-8.79,2.01-3.93.88-5.8,3.33-5.79,7.52,0,2.98,1.21,6.48,4.42,7.58Z"/>
  <path class="st0" d="M741.7,595.61c-6.58-1.68-13.49.15-17.89,5.38-3.23,3.84-4.23,8.64-3.8,13.57.61,7.05,5.22,12.69,12.17,14.33,7.37,1.74,15.1-.7,19.78-6.67-.67-.74-1.42-1.29-2.21-1.6-2.62,3.36-6.73,5.86-11.25,5.25-5.91-.8-9.82-5.98-10.25-11.5l24.66-.11c1.38-8.8-2.67-16.48-11.21-18.66ZM736.91,598.33c2.3-.03,4.36.6,5.94,2.44,1.82,2.25,2.69,4.96,2.85,8.02h-17.59c.31-5.16,3.46-10.39,8.79-10.46Z"/>
  <path class="st0" d="M269.49,609.89c6.44,0,9.83,7.8,6.78,14.92-4.75,11.87-27.12,22.72-48.82,22.72-23.06,0-45.09-12.21-45.09-47.47v-72.22c1.3-37.02,2.18-38.13-5.76-38.65-13.28-.87-19.52-7.93-15.85-16.21,1.24-2.81,6.44-4.29,8.96-5.24,13.1-4.94,20.14-10.8,24.91-14.73,9.34-7.7,9.94-8.99,14.26-13.94,4.32-4.94,7.17-8.9,15.92-9.27,1.81-.08,1.37-.02,1.92-.01,8.09.1,14.98,5.83,14.98,13.29v7.26c.03,5.31-.38,14.61,5.61,14.61l10.3.09c21.72,0,21.36,24.31-.31,24.82h-.99c-8.07,0-14.61,6.54-14.61,14.61v67.78c0,25.77,2.37,41.7,13.56,41.7,2.71,0,5.76-1.02,9.15-2.71,1.7-1.02,3.39-1.36,5.09-1.36Z"/>
  <path class="st0" d="M626.72,622.15c2.18,24.03-33.38,27.11-48.69,27.11-17.9,0-26.71-4.75-29.56-17.23-.71-3.12-4.7-4.03-6.73-1.56-10.26,12.48-29.12,19.76-48.4,19.76-26.06,0-53.42-13.03-53.42-43.97,0-48.86,66.45-37.13,66.45-65.15,0-4.23-3.26-7.49-8.14-7.49-7.17,0-11.07,6.19-22.15,6.19-13.68,0-21.5-9.12-21.5-21.17,0-25.41,36.07-52.17,72.55-52.17,38.44,0,77.61,28.07,77.61,70.74v53.42c-.36,23.45,20.25,12.5,21.98,31.52ZM547.4,512.13c0-18.15-7.95-31.5-26.74-31.63-13.28-.09-27.47,7.49-25.26,23.31.64,4.57,2.52,14.44,13.41,13.87,23.84-1.25,30.51,13.95,30.51,24.21,0,25.46-48.19,20.37-52.35,52.02-1.61,12.27,9.35,20.35,24.7,18.61,13.59-1.54,35.73-7.22,35.73-41.96v-58.43Z"/>
  <path class="st0" d="M695.47,512.31l-.03-20.25c0-4.65-2.26-8.12-7.29-8.67-3.93-.43-7.81,1.56-10.06,4.69l-.02,24.21-7.51-.02v-46.07s7.48-.02,7.48-.02l.08,15.86c4.36-2.93,9.4-4.16,14.54-3.31,5.98.99,10.06,5.5,10.57,11.63l.03,21.94-7.79.02Z"/>
  <path class="st0" d="M757.53,570.57l-7.51.05v-33.46c1.82.02,3.67-.42,5.26.05,1.25,1.03,1.68,2.98,2.44,4.42,3.36-4.23,8.75-5.58,13.95-4.55-.34,2.07-.62,3.84-1.21,5.9-3.52-1.9-10.25-.66-12.87,2.87l-.06,24.72Z"/>
  <path class="st0" d="M662.53,507c-2.75,1.4-6.8,2.09-9.16.92-3.3-1.63-3.98-5.73-3.98-8.87l-.02-16.45,7.97-.18c.03-.75.06-1.41.06-2.07h0l-.03-2.87h-8.02l-.09-10.08-7.24.08.08,32.03c0,3.39.51,7.43,2.62,10.04,4.51,5.58,15.77,5.12,19.97.31-1.14-1.27-1.17-1.54-2.18-2.85Z"/>
  <path class="st0" d="M731.23,479c-6.58-1.68-13.49.15-17.89,5.38-3.23,3.84-4.23,8.64-3.8,13.57.61,7.05,5.22,12.69,12.17,14.33,7.37,1.74,15.1-.7,19.78-6.67-.67-.74-1.42-1.29-2.21-1.6-2.62,3.36-6.73,5.86-11.25,5.25-5.91-.8-9.82-5.98-10.25-11.5l24.66-.11c1.38-8.8-2.67-16.48-11.21-18.66ZM726.44,481.72c2.3-.03,4.36.6,5.94,2.44,1.82,2.25,2.69,4.96,2.85,8.02h-17.59c.31-5.16,3.46-10.39,8.79-10.46Z"/>
  <path class="st0" d="M709.85,536.95c-1.95-.23-3.07,0-3.07,0l-11.7,26.42-12.02-26.28c-2.71,0-5.08-.21-7.43.11l15.18,33.36c1.95.18,3.69.2,5.63,0l15.12-33.31c-.42-.08-1.08-.25-1.71-.28Z"/>
  <path class="st0" d="M805.36,537.23l-11.74,26.98-11.75-27.06c-2.4-.1-4.56-.19-7.08.06l15.06,35.05c-.79,2.4-1.89,5.09-3.47,7.4-1.38,2.02-3.56,2.33-5.56,1.03-.85-.55-1.48-.93-2.41-1.53-.86,1.25-1.41,2.22-2.11,3.62,1.51,1.43,3.3,2.48,5.44,3.12.8.24,1.58.32,2.33.28v.02c7.35,0,10.5-7.78,10.5-7.78l17.32-40.95c-3.32-.7-6.52-.22-6.52-.22Z"/>
  <path class="st0" d="M663.83,537.07c-6.58-1.68-13.49.15-17.89,5.38-3.23,3.84-4.23,8.64-3.8,13.57.61,7.05,5.22,12.69,12.17,14.33,7.37,1.74,15.1-.7,19.78-6.67-.67-.74-1.42-1.29-2.21-1.6-2.62,3.36-6.73,5.86-11.25,5.25-5.91-.8-9.82-5.98-10.25-11.5l24.66-.11c1.38-8.8-2.67-16.48-11.21-18.66ZM659.03,539.78c2.3-.03,4.36.6,5.94,2.44,1.82,2.25,2.69,4.96,2.85,8.02h-17.59c.31-5.16,3.46-10.39,8.79-10.46Z"/>
  <path class="st0" d="M733.69,537.31c-6.58-1.68-13.49.15-17.89,5.38-3.23,3.84-4.23,8.64-3.8,13.57.61,7.05,5.22,12.69,12.17,14.33,7.37,1.74,15.1-.7,19.78-6.67-.67-.74-1.42-1.29-2.21-1.6-2.62,3.36-6.73,5.86-11.25,5.25-5.91-.8-9.82-5.98-10.25-11.5l24.66-.11c1.38-8.8-2.67-16.48-11.21-18.66ZM728.9,540.02c2.3-.03,4.36.6,5.94,2.44,1.82,2.25,2.69,4.96,2.85,8.02h-17.59c.31-5.16,3.46-10.39,8.79-10.46Z"/>
  <path class="st0" d="M428.73,596.89c-1.7,0-3.39.34-5.09,1.36-12.54,7.46-27.12,12.21-43.4,12.21-28.48,0-40.69-13.9-40.69-28.14,0-38.31,85.49-1.65,90.53-61.71,2.91-34.68-30.05-53.73-69.84-53.91-48.63-.22-96.63,37.3-96.63,92.22,0,60.35,46.45,90.19,92.56,90.19,30.51,0,61.03-13.22,77.64-39.33,4.07-6.1.68-12.88-5.09-12.88ZM332.73,547.61c-2.75-9.07-5.69-50.81,32.13-58.61,49.17-10.15,53.67,44.44,19.78,47.71-16.31,1.57-33.52,6.6-42.84,15.36-2.55,2.4-5.81,6.29-9.07-4.46Z"/>
</svg>